<?xml version="1.0" standalone="no"?>
<!DOCTYPE svg PUBLIC "-//W3C//DTD SVG 20010904//EN"
 "http://www.w3.org/TR/2001/REC-SVG-20010904/DTD/svg10.dtd">
<svg version="1.0" xmlns="http://www.w3.org/2000/svg"
 width="512.000000pt" height="512.000000pt" viewBox="0 0 512.000000 512.000000"
 preserveAspectRatio="xMidYMid meet">
<metadata>
Created by potrace 1.14, written by Peter Selinger 2001-2017
</metadata>
<g transform="translate(0.000000,512.000000) scale(0.100000,-0.100000)"
fill="#000000" stroke="none">
<path d="M2428 5096 c-35 -11 -64 -24 -66 -28 -2 -4 -9 -8 -16 -8 -20 0 -112
-88 -144 -137 -99 -157 -88 -352 28 -498 37 -46 137 -119 186 -135 19 -7 34
-17 35 -23 1 -16 1 -1888 0 -1905 -1 -11 -57 26 -131 85 -8 7 -53 41 -100 76
-47 35 -157 117 -246 184 l-160 120 0 298 1 297 59 24 c199 81 308 322 237
526 -93 269 -415 379 -643 219 -179 -125 -236 -358 -136 -554 41 -80 165 -186
238 -202 l30 -7 0 -341 c1 -249 4 -348 13 -364 9 -16 653 -509 821 -629 19
-13 19 -34 19 -619 0 -333 -3 -608 -6 -611 -3 -3 -18 6 -34 20 -15 14 -31 26
-35 26 -3 0 -13 6 -20 13 -7 7 -29 24 -48 37 -19 13 -37 27 -40 30 -3 3 -149
114 -325 245 -176 132 -324 243 -330 248 -9 7 -575 431 -629 471 -26 19 -26
20 -26 155 l0 137 67 29 c125 54 222 181 246 321 44 255 -160 497 -417 495
-86 -1 -111 -7 -192 -46 -86 -42 -154 -111 -194 -198 -34 -74 -41 -102 -41
-184 0 -167 100 -316 261 -390 l56 -25 1 -186 0 -186 35 -30 c51 -45 79 -68
118 -96 19 -13 40 -28 45 -33 6 -4 214 -160 462 -346 249 -186 465 -348 480
-360 16 -12 148 -112 296 -221 252 -189 267 -202 268 -232 0 -18 1 -135 2
-260 2 -213 3 -228 23 -255 24 -32 70 -49 108 -39 21 5 112 72 216 159 8 7 73
60 145 117 71 58 141 115 155 127 14 12 165 134 335 273 171 138 343 278 383
311 41 34 77 57 84 53 6 -4 8 -3 5 3 -4 6 87 86 201 179 114 93 215 176 225
185 34 31 42 79 41 246 l-1 161 71 36 c77 39 116 71 162 132 16 21 31 41 34
44 7 7 30 69 41 110 18 70 5 246 -21 270 -3 3 -11 15 -17 28 -32 56 -41 68
-83 108 -213 205 -552 138 -682 -135 -71 -149 -34 -352 85 -469 48 -47 152
-112 179 -112 17 0 18 -12 18 -147 l0 -148 -32 -25 c-17 -14 -81 -66 -142
-115 -61 -50 -131 -106 -156 -125 -25 -19 -58 -47 -75 -62 -16 -15 -33 -28
-37 -28 -4 0 -15 -8 -25 -18 -10 -10 -40 -36 -68 -58 -27 -21 -52 -42 -55 -45
-3 -3 -36 -29 -74 -59 -38 -29 -79 -61 -90 -71 -18 -15 -400 -326 -446 -362
-59 -47 -166 -133 -170 -137 -20 -20 -100 -80 -110 -82 -10 -2 -12 127 -12
622 0 344 1 639 1 657 1 27 9 38 49 64 26 18 49 35 52 38 3 4 75 58 160 121
85 63 157 117 160 120 3 3 30 23 60 45 58 42 62 45 96 73 12 9 74 55 137 102
64 47 121 95 127 108 6 15 10 146 10 361 l0 338 42 14 c121 40 221 150 262
287 18 62 16 188 -5 248 -29 84 -96 171 -171 222 -213 143 -506 60 -619 -175
-27 -57 -34 -83 -37 -154 -9 -187 80 -335 251 -417 l64 -30 0 -296 -1 -296
-313 -235 c-172 -129 -316 -235 -320 -235 -6 0 -9 2258 -4 2337 1 6 11 14 24
18 91 26 205 123 247 211 50 105 59 221 25 329 -70 221 -313 344 -537 271z
m238 -221 c119 -70 141 -228 46 -328 -37 -39 -69 -55 -129 -63 -125 -16 -233
81 -233 209 0 163 176 264 316 182z m-871 -844 c167 -75 161 -315 -9 -386
-100 -42 -216 1 -267 99 -56 105 -6 243 104 291 45 20 125 18 172 -4z m1700
-421 c39 -15 82 -56 106 -101 53 -105 12 -231 -94 -284 -138 -69 -291 20 -305
178 -3 37 2 59 22 101 51 104 162 147 271 106z m-2536 -761 c121 -68 142 -242
40 -334 -22 -20 -51 -40 -65 -46 -70 -26 -151 -14 -212 31 -79 58 -103 194
-50 276 29 45 73 81 116 95 43 13 127 3 171 -22z m3361 -403 c0 3 17 -4 38
-15 162 -83 161 -299 -2 -383 -90 -46 -223 -3 -274 89 -46 83 -28 198 41 262
38 34 121 60 163 51 19 -4 34 -6 34 -4z"/>
</g>
</svg>
